<?xml version="1.0" standalone="no"?>
<!DOCTYPE svg PUBLIC "-//W3C//DTD SVG 20010904//EN"
 "http://www.w3.org/TR/2001/REC-SVG-20010904/DTD/svg10.dtd">
<svg version="1.0" xmlns="http://www.w3.org/2000/svg"
 width="959.000000pt" height="959.000000pt" viewBox="0 0 959.000000 959.000000"
 preserveAspectRatio="xMidYMid meet">
<metadata>
Created by potrace 1.14, written by Peter Selinger 2001-2017
</metadata>
<g transform="translate(0.000000,959.000000) scale(0.100000,-0.100000)"
fill="#000000" stroke="none">
<path d="M0 9275 c0 -174 4 -315 9 -315 5 0 14 6 20 14 44 53 146 72 471 86
356 15 398 19 438 36 20 9 68 27 105 41 38 13 130 56 204 94 75 38 144 69 154
69 10 0 21 5 24 10 3 6 15 10 25 10 11 0 37 9 59 20 36 19 53 21 244 18 113
-2 203 0 201 4 -3 5 -104 8 -224 8 -128 0 -221 4 -225 10 -6 10 13 51 56 122
15 24 30 53 33 66 l7 22 -214 0 -215 0 -17 -37 c-10 -21 -27 -49 -39 -63 -12
-14 -30 -45 -40 -68 -10 -23 -23 -42 -28 -42 -5 0 -18 -19 -29 -42 -27 -60
-41 -76 -79 -90 -29 -10 -31 -12 -17 -23 23 -16 21 -32 -3 -40 -11 -4 -31 -17
-43 -30 -29 -32 -91 -47 -206 -52 l-94 -4 7 28 c8 29 75 142 108 179 11 12 16
28 12 38 -4 10 3 26 21 44 38 37 115 161 115 183 0 18 -18 19 -420 19 l-420 0
0 -315z"/>
<path d="M5735 9580 c10 -17 60 -39 111 -50 27 -6 112 -30 189 -55 77 -24 192
-56 255 -70 63 -15 154 -38 202 -51 48 -13 92 -24 98 -24 7 0 26 -6 43 -14 18
-8 59 -21 92 -29 33 -9 123 -33 200 -53 77 -20 160 -40 185 -45 25 -5 72 -18
105 -28 33 -11 87 -27 120 -36 33 -9 69 -21 80 -26 20 -9 72 -22 151 -39 22
-5 51 -13 65 -18 13 -6 71 -24 129 -42 58 -18 130 -40 160 -50 30 -10 87 -25
125 -35 259 -63 443 -133 524 -200 57 -47 204 -135 225 -135 5 0 24 -11 42
-25 18 -14 36 -25 39 -25 13 0 235 -135 405 -246 110 -72 277 -164 297 -164
11 0 13 125 13 735 l0 735 -1931 0 c-1293 0 -1928 -3 -1924 -10z"/>
<path d="M3380 9430 c-41 -43 -80 -79 -87 -79 -6 -1 -15 -11 -19 -23 -15 -52
-41 -63 -149 -64 -125 -1 -135 -2 -135 -13 0 -15 76 -21 340 -26 164 -3 251
-2 245 4 -12 12 -138 32 -217 34 -31 1 -60 5 -64 9 -8 9 15 40 26 33 10 -6 51
42 81 94 13 24 36 49 51 57 28 15 40 55 16 53 -7 0 -47 -36 -88 -79z"/>
<path d="M3990 9436 c0 -31 12 -47 26 -35 19 15 18 22 -6 37 -16 10 -20 10
-20 -2z"/>
<path d="M4006 9307 c16 -172 13 -197 -20 -197 -16 -1 -13 -4 14 -16 35 -15
80 -12 80 6 0 6 -4 10 -9 10 -4 0 -11 26 -15 57 -12 102 -30 182 -43 187 -9 4
-11 -9 -7 -47z"/>
<path d="M2018 9333 c12 -2 30 -2 40 0 9 3 -1 5 -23 4 -22 0 -30 -2 -17 -4z"/>
<path d="M2120 9310 c8 -5 38 -9 65 -9 40 1 45 3 25 9 -38 12 -109 12 -90 0z"/>
<path d="M2270 9280 c36 -11 102 -11 120 0 10 7 -10 9 -65 9 -55 -1 -72 -3
-55 -9z"/>
<path d="M2440 9260 c-10 -7 21 -9 95 -9 70 1 101 4 85 9 -36 11 -162 11 -180
0z"/>
<path d="M2743 9253 c31 -2 83 -2 115 0 31 2 5 3 -58 3 -63 0 -89 -1 -57 -3z"/>
<path d="M3595 9212 c13 -13 94 -22 101 -11 3 5 -3 9 -13 9 -10 0 -36 3 -58 6
-28 5 -37 3 -30 -4z"/>
<path d="M3710 9181 c0 -10 69 -25 77 -17 3 2 2 9 -2 15 -8 13 -75 15 -75 2z"/>
<path d="M4250 9114 l-45 -13 65 5 c36 3 81 9 100 14 32 7 31 8 -20 8 -30 0
-75 -6 -100 -14z"/>
<path d="M3915 9110 c-3 -6 1 -7 9 -4 18 7 21 14 7 14 -6 0 -13 -4 -16 -10z"/>
<path d="M4090 9100 c0 -12 27 -12 55 0 16 7 13 9 -17 9 -21 1 -38 -3 -38 -9z"/>
<path d="M606 8851 c-4 -7 -5 -15 -2 -18 9 -9 19 4 14 18 -4 11 -6 11 -12 0z"/>
<path d="M550 8780 c0 -5 7 -7 15 -4 8 4 15 8 15 10 0 2 -7 4 -15 4 -8 0 -15
-4 -15 -10z"/>
<path d="M133 8727 c-8 -13 4 -20 35 -23 93 -7 196 -3 252 10 36 8 61 15 55
16 -50 5 -338 3 -342 -3z"/>
<path d="M35 8510 c3 -5 8 -10 11 -10 2 0 4 5 4 10 0 6 -5 10 -11 10 -5 0 -7
-4 -4 -10z"/>
<path d="M60 8472 c0 -5 7 -15 15 -22 8 -7 15 -8 15 -2 0 5 -7 15 -15 22 -8 7
-15 8 -15 2z"/>
<path d="M100 8411 c0 -16 124 -118 177 -146 85 -44 217 -77 348 -88 75 -5
135 -16 160 -27 27 -12 47 -15 62 -9 12 4 75 13 140 19 185 17 320 39 408 68
33 11 84 23 112 27 29 4 55 11 59 16 14 23 155 1 239 -37 119 -54 232 -100
299 -121 43 -14 113 -45 156 -68 42 -24 100 -53 128 -65 29 -12 52 -26 52 -31
0 -5 5 -9 11 -9 6 0 25 -6 42 -14 72 -30 89 -36 112 -36 13 0 46 -14 72 -32
55 -37 208 -190 229 -230 8 -15 24 -38 37 -51 12 -13 57 -61 100 -108 42 -46
88 -96 102 -111 14 -15 25 -31 25 -37 0 -6 10 -16 22 -22 12 -6 31 -20 42 -30
10 -10 38 -31 60 -46 23 -15 48 -36 57 -45 9 -10 22 -18 28 -18 6 0 14 -7 17
-15 4 -8 34 -38 68 -65 33 -28 71 -59 84 -70 13 -11 43 -34 68 -52 24 -17 44
-35 44 -40 0 -4 6 -8 13 -8 8 0 22 -9 32 -20 10 -11 24 -20 32 -20 7 0 36 -16
63 -35 31 -22 61 -35 81 -35 30 0 31 1 17 22 -14 20 -110 78 -131 78 -5 0 -20
11 -33 25 -13 14 -26 25 -29 25 -4 0 -27 17 -53 38 -48 38 -76 57 -101 69 -8
3 -22 14 -32 22 -56 52 -68 61 -76 61 -5 0 -33 23 -62 50 -29 28 -56 50 -60
50 -9 0 -137 125 -203 200 -32 36 -78 88 -103 115 -25 28 -48 59 -51 70 -3 11
-20 32 -38 48 -40 35 -108 102 -155 150 -49 51 -148 117 -177 117 -12 0 -26 5
-29 10 -3 6 -14 10 -24 10 -10 0 -24 7 -31 15 -7 8 -21 15 -31 15 -22 0 -99
39 -99 50 0 4 -12 11 -27 15 -16 3 -73 27 -128 52 -55 25 -113 51 -130 58 -16
8 -46 17 -65 21 -19 3 -53 15 -74 25 -22 11 -50 19 -63 19 -13 0 -23 4 -23 8
0 9 -84 37 -143 47 -20 3 -37 10 -37 15 0 13 -137 13 -145 0 -3 -5 -18 -10
-32 -10 -13 0 -77 -13 -141 -29 -217 -53 -242 -56 -502 -55 -233 0 -250 2
-340 27 -52 14 -121 31 -153 37 -33 7 -67 20 -78 31 -10 10 -24 19 -29 19 -11
0 -83 44 -115 70 -25 21 -55 32 -55 21z"/>
<path d="M782 8087 c-11 -12 -27 -39 -36 -59 -8 -21 -20 -38 -25 -38 -6 0 -11
-10 -11 -23 0 -21 -50 -93 -77 -110 -7 -4 -13 -14 -13 -22 0 -8 -8 -20 -18
-27 -9 -7 -22 -23 -27 -35 -11 -24 -69 -97 -102 -129 -26 -24 -31 -64 -8 -64
9 0 20 11 25 24 5 13 14 27 19 31 6 3 11 15 11 25 0 11 10 24 23 31 12 6 30
21 40 33 31 38 77 107 77 117 0 5 7 9 15 9 8 0 15 6 15 13 0 7 13 26 29 41 15
15 34 46 42 69 7 23 23 55 36 70 38 47 24 86 -15 44z"/>
<path d="M397 7918 c-3 -18 -6 -53 -6 -77 -1 -24 -6 -51 -10 -60 -5 -9 -11
-33 -15 -53 -4 -21 -12 -38 -18 -38 -7 0 -9 -15 -5 -45 4 -25 2 -47 -3 -50 -6
-3 -10 -16 -10 -28 0 -12 -9 -37 -20 -55 -11 -18 -20 -39 -20 -47 0 -8 -12
-54 -26 -102 -14 -49 -32 -108 -39 -133 -11 -40 -40 -118 -64 -175 -5 -11 -16
-40 -26 -65 -9 -25 -23 -57 -31 -72 -8 -14 -14 -31 -14 -37 0 -9 -37 -71 -59
-97 -19 -24 -31 -54 -30 -81 0 -16 3 -22 6 -13 10 25 84 144 103 165 18 20 70
141 70 163 0 7 5 12 10 12 6 0 10 8 10 18 0 9 12 49 25 87 14 39 25 81 25 93
0 13 6 38 14 55 7 18 22 58 32 90 10 31 24 57 30 57 7 0 23 14 36 31 13 17 38
45 56 62 37 36 40 47 11 47 -13 0 -23 -8 -26 -20 -3 -12 -19 -28 -34 -36 -27
-13 -30 -13 -36 3 -4 9 -1 19 5 21 7 2 12 11 12 21 0 9 7 27 16 39 13 20 14
28 3 54 -8 19 -9 32 -2 36 22 15 71 216 60 245 -10 27 -24 20 -30 -15z"/>
<path d="M3926 6781 c-8 -12 18 -21 55 -21 17 0 45 -11 63 -25 23 -17 46 -25
74 -25 47 0 56 17 15 25 -70 15 -104 27 -110 41 -6 16 -88 20 -97 5z"/>
<path d="M4190 6702 c0 -6 17 -14 38 -17 20 -3 45 -10 54 -15 16 -9 102 -29
218 -51 30 -6 96 -14 145 -18 50 -4 96 -10 103 -15 31 -19 719 -65 990 -66
121 0 135 -2 155 -21 12 -11 31 -26 42 -31 17 -10 18 -9 7 4 -18 22 3 25 205
23 145 -1 176 -4 191 -18 21 -19 79 -19 87 1 5 13 61 17 69 4 7 -12 393 -22
541 -15 180 9 111 21 -125 23 -113 0 -248 5 -300 11 -52 5 -111 11 -130 13
-19 2 -138 5 -265 6 -126 1 -259 6 -295 11 -36 5 -153 14 -260 19 -237 11
-476 26 -632 40 -64 5 -143 10 -175 10 -33 0 -64 5 -71 12 -8 8 -53 14 -115
16 -56 2 -106 8 -111 13 -6 5 -34 9 -63 9 -29 0 -61 5 -71 10 -18 11 -131 38
-194 47 -24 3 -38 1 -38 -5z"/>
<path d="M5954 6404 c6 -72 26 -80 26 -11 0 44 -3 57 -15 57 -12 0 -14 -10
-11 -46z"/>
<path d="M6372 6407 c-1 -17 4 -48 12 -67 8 -19 17 -47 20 -62 4 -16 11 -28
16 -28 12 0 13 34 1 80 -5 19 -12 52 -16 73 -7 46 -29 49 -33 4z"/>
<path d="M5994 6279 c6 -78 25 -159 37 -159 5 0 9 25 9 55 0 30 -4 55 -10 55
-5 0 -12 17 -15 38 -12 73 -26 81 -21 11z"/>
<path d="M6987 6232 c-31 -6 -13 -27 29 -32 21 -3 55 -13 74 -22 l35 -17 -43
-7 c-23 -3 -45 -11 -48 -15 -3 -5 -20 -9 -38 -9 -17 0 -37 -5 -42 -10 -16 -16
-461 -15 -480 1 -8 6 -14 24 -14 40 0 15 -8 35 -17 45 -17 17 -18 15 -21 -41
-2 -32 2 -63 7 -68 6 -6 11 -31 11 -55 0 -43 10 -115 31 -232 20 -105 83 -250
164 -372 87 -134 114 -170 134 -185 11 -7 36 -37 57 -65 21 -29 48 -65 62 -79
14 -17 22 -36 20 -50 -2 -20 -9 -24 -38 -25 -63 -2 -175 15 -205 30 -17 9 -39
16 -51 16 -11 0 -29 7 -40 15 -10 8 -29 15 -40 15 -12 0 -27 6 -33 14 -7 8
-38 27 -69 42 -31 15 -65 35 -75 44 -17 17 -62 38 -167 80 -30 13 -58 28 -62
34 -5 6 -8 112 -7 236 0 224 -8 305 -37 362 -13 25 -21 71 -23 141 -1 16 -5
26 -11 22 -6 -3 -8 -16 -5 -28 2 -12 7 -53 9 -92 3 -38 13 -92 22 -120 15 -44
18 -119 25 -585 4 -294 10 -548 13 -565 3 -16 10 -93 15 -170 5 -77 19 -214
30 -305 11 -91 25 -203 31 -250 11 -84 45 -304 77 -490 21 -129 19 -438 -6
-680 -7 -67 -23 -134 -54 -225 -24 -71 -52 -152 -62 -180 -9 -27 -23 -68 -30
-90 -49 -151 -149 -369 -190 -412 -14 -15 -25 -34 -25 -42 0 -8 -17 -35 -38
-60 -21 -25 -42 -57 -45 -71 -3 -14 -22 -44 -42 -67 -19 -23 -35 -45 -35 -50
0 -15 -174 -230 -217 -268 -13 -11 -23 -25 -23 -30 0 -6 -14 -19 -30 -30 -16
-11 -30 -26 -30 -32 0 -7 -8 -21 -17 -31 -10 -10 -34 -36 -53 -57 -20 -22 -60
-61 -90 -87 -33 -29 -75 -81 -105 -130 l-50 -83 -131 -6 c-73 -4 -142 -10
-153 -14 -12 -4 -28 -1 -36 5 -10 9 -86 11 -281 8 -246 -4 -267 -5 -280 -23
-12 -17 -18 -17 -56 -6 -24 8 -52 17 -63 23 -12 5 -122 8 -250 6 l-230 -3 -2
-82 c-1 -91 -17 -136 -50 -141 -20 -3 -22 -9 -22 -68 1 -40 6 -69 14 -78 8 -7
16 -32 19 -55 4 -36 2 -41 -16 -41 -27 0 -58 18 -58 35 0 7 -4 15 -10 17 -6 2
-6 15 -1 33 5 21 4 39 -6 58 -8 15 -11 32 -8 37 3 5 1 11 -5 15 -18 11 -11 35
10 35 24 0 24 3 4 41 -8 17 -14 42 -12 55 l3 25 23 -21 22 -21 0 31 c0 28 -7
33 -37 29 -14 -2 -23 31 -14 50 8 14 6 22 -8 35 -15 14 -46 16 -210 16 -121 0
-200 -4 -213 -11 -16 -9 -114 -19 -183 -19 -34 0 -78 10 -90 20 -9 7 -27 10
-44 7 -15 -3 -49 0 -75 8 -26 8 -61 12 -79 9 -22 -4 -28 -3 -19 4 27 19 -79
31 -108 12 -10 -6 -11 -10 -2 -10 6 0 12 -3 12 -8 0 -4 -42 -4 -92 -1 -87 6
-96 5 -134 -17 -23 -14 -44 -33 -47 -44 -7 -28 -36 -25 -47 4 -10 27 -38 46
-68 46 -10 0 -33 7 -51 16 -27 13 -53 15 -148 10 -75 -4 -120 -3 -128 4 -9 8
-14 6 -19 -5 -4 -12 -14 -14 -40 -9 -32 5 -36 4 -41 -19 -4 -14 -4 -30 -1 -35
6 -11 -17 -34 -30 -31 -23 4 -26 -3 -10 -20 17 -18 17 -20 -4 -41 -13 -13 -20
-31 -18 -48 2 -22 -2 -28 -20 -30 -59 -9 -63 -187 -6 -238 27 -24 31 -44 11
-44 -8 0 -22 -9 -31 -19 -21 -23 -46 -17 -46 9 0 13 5 17 20 13 13 -4 20 0 20
10 0 8 -10 17 -22 21 -32 8 -40 7 -33 -4 8 -12 -16 -50 -33 -50 -7 0 -16 8
-19 18 -4 9 -13 23 -20 30 -11 11 -14 11 -19 -2 -5 -12 -16 -14 -52 -9 -54 7
-53 6 -56 29 -2 13 -14 18 -52 21 -55 4 -104 21 -104 35 0 5 14 15 30 21 17 6
30 15 30 19 0 14 -51 8 -56 -7 -8 -20 -42 -29 -60 -15 -18 16 -46 31 -179 99
-58 30 -105 58 -105 62 0 5 -6 9 -14 9 -8 0 -16 10 -18 23 -2 14 -11 23 -26
25 -12 2 -22 8 -22 13 0 5 -5 9 -11 9 -15 0 -129 71 -129 81 0 4 -10 11 -22
15 -12 4 -31 17 -41 30 -10 13 -23 24 -28 24 -18 0 -78 51 -84 71 -4 10 -10
19 -15 19 -5 0 -21 11 -36 25 -19 18 -33 23 -51 19 -19 -5 -25 -2 -30 15 -3
11 -9 21 -14 21 -5 0 -17 7 -26 16 -10 9 -54 39 -98 67 -44 28 -86 59 -93 69
-7 10 -20 18 -28 18 -23 0 -14 -70 11 -84 27 -15 60 -57 60 -77 1 -9 9 -24 18
-34 11 -11 16 -25 12 -39 -5 -17 0 -15 23 11 26 31 30 32 48 17 13 -11 15 -17
7 -20 -25 -11 -14 -52 20 -78 44 -34 53 -33 26 3 -12 16 -19 37 -16 45 9 22
27 20 27 -2 0 -20 44 -65 73 -75 9 -4 17 -11 17 -17 0 -5 7 -10 15 -10 7 0 18
-6 22 -14 4 -8 25 -24 46 -36 20 -12 37 -25 37 -29 0 -4 12 -12 28 -18 15 -7
36 -18 47 -25 83 -55 122 -85 136 -102 9 -12 48 -37 87 -56 45 -22 70 -40 69
-50 -1 -10 8 -16 28 -18 18 -2 36 -12 43 -23 12 -18 11 -21 -8 -26 -15 -4 -19
-11 -14 -26 7 -23 43 -56 61 -57 7 0 16 -7 21 -16 9 -16 61 -22 82 -9 9 5 10
2 6 -13 -6 -17 -2 -23 19 -28 14 -3 24 -11 22 -18 -5 -15 -67 -20 -80 -7 -16
16 -47 13 -47 -4 0 -8 9 -15 20 -15 11 0 20 -7 20 -15 0 -8 -9 -15 -20 -15
-11 0 -20 -7 -20 -15 0 -19 39 -19 64 0 11 8 30 15 43 15 13 0 23 6 23 14 0
15 57 25 125 21 61 -3 62 -4 69 -22 6 -15 4 -15 -14 2 -19 18 -21 18 -41 -1
-17 -15 -23 -16 -41 -5 -15 9 -23 10 -31 2 -6 -6 -24 -11 -40 -11 -24 0 -28
-4 -25 -22 2 -17 11 -24 31 -26 15 -2 27 -8 27 -14 0 -5 -7 -8 -15 -4 -10 4
-15 -1 -15 -14 0 -17 7 -20 42 -20 23 0 49 -7 59 -15 21 -20 70 -10 76 16 3
11 13 19 23 19 16 0 18 -7 14 -58 -3 -31 -7 -65 -9 -74 -3 -16 8 -18 123 -18
134 0 135 1 57 39 -16 8 -11 10 25 10 59 1 120 -9 120 -20 0 -5 -9 -9 -19 -9
-11 0 -23 -4 -26 -10 -4 -6 60 -9 177 -8 101 1 162 4 136 6 -39 2 -48 7 -48
22 0 16 -5 17 -27 11 -39 -11 -143 9 -143 28 0 11 11 12 53 7 28 -3 69 -6 90
-6 26 0 37 -4 37 -15 0 -11 11 -15 35 -15 20 0 46 -7 59 -15 17 -12 64 -17
187 -20 125 -4 160 -3 145 6 -11 7 -38 9 -68 6 -36 -5 -48 -3 -45 6 6 18 62
20 120 3 49 -14 102 -16 447 -18 30 0 122 2 203 3 129 4 150 6 158 22 12 20
39 23 39 4 0 -7 -5 -18 -12 -25 -9 -9 -6 -12 14 -12 15 0 30 5 33 10 3 6 15
10 26 10 11 0 27 7 36 15 14 14 19 14 51 -5 l35 -21 43 22 c24 12 52 31 61 42
18 19 17 19 -7 12 -18 -5 -22 -4 -15 4 10 10 43 19 144 38 38 7 38 7 -10 -46
-24 -27 -31 -51 -14 -51 8 0 15 4 15 8 0 5 14 24 30 42 17 18 30 37 30 41 0 4
13 10 30 14 19 4 30 13 30 23 0 41 100 49 121 10 14 -27 50 -38 72 -23 23 16
72 8 57 -9 -5 -7 -13 -30 -18 -51 -7 -36 -10 -39 -42 -40 -49 -2 -57 2 -64 36
-7 38 -46 42 -46 4 0 -14 4 -25 10 -25 5 0 7 -13 3 -30 -5 -27 -3 -30 21 -30
14 0 26 5 26 10 0 6 7 10 15 10 8 0 15 -4 15 -10 0 -6 983 -10 2870 -10 l2870
0 0 2124 c0 2120 0 2125 -20 2131 -11 4 -27 20 -35 36 -9 16 -20 29 -24 29 -5
0 -46 34 -91 75 -45 41 -86 75 -91 75 -6 0 -22 13 -37 28 -15 16 -49 44 -76
62 -27 18 -57 40 -66 49 -9 9 -55 50 -102 91 -47 41 -91 85 -97 98 -6 12 -17
22 -24 22 -8 0 -20 11 -27 25 -7 14 -19 25 -25 25 -7 0 -38 25 -71 55 -32 30
-64 55 -70 55 -6 0 -53 41 -105 91 -52 50 -111 102 -131 115 -21 13 -38 28
-38 33 0 5 -37 35 -82 67 -46 32 -108 77 -138 101 -30 24 -68 54 -84 66 -16
12 -36 29 -45 37 -9 8 -41 35 -71 59 -30 25 -60 51 -67 59 -6 7 -25 21 -41 30
-67 39 -98 60 -166 114 -39 32 -87 73 -106 91 -20 19 -53 46 -75 60 -58 38
-134 95 -206 154 -35 29 -98 69 -139 88 -41 20 -82 41 -90 46 -47 29 -125 49
-163 41z m1893 -1452 c0 -5 17 -17 38 -27 42 -19 55 -33 80 -83 22 -43 18 -64
-14 -85 -14 -9 -22 -20 -19 -25 3 -5 -3 -13 -13 -19 -10 -5 -30 -34 -45 -65
-15 -30 -32 -58 -37 -61 -6 -3 -10 -15 -10 -25 0 -10 -14 -34 -31 -52 -17 -18
-37 -50 -46 -70 -8 -21 -18 -38 -22 -38 -4 0 -20 -25 -36 -55 -15 -31 -40 -72
-56 -91 -15 -19 -31 -48 -34 -64 -4 -17 -11 -32 -16 -36 -5 -3 -23 -33 -39
-67 -43 -91 -80 -127 -129 -127 -49 0 -77 96 -47 163 48 107 79 173 85 177 4
3 16 21 27 40 10 19 29 47 42 61 12 14 31 41 41 60 10 19 37 70 61 114 93 173
110 207 110 221 0 8 11 26 25 39 20 18 24 29 19 49 -7 28 12 36 34 14 14 -14
27 13 19 42 -3 11 -1 20 4 20 5 0 9 -4 9 -10z m-6256 -3996 c9 -3 16 -12 16
-19 0 -7 6 -17 13 -23 15 -13 93 -17 125 -7 29 10 30 -17 2 -63 -26 -43 -25
-59 5 -66 14 -4 25 -10 25 -15 0 -12 -56 -31 -94 -31 -17 0 -37 -4 -45 -9 -24
-15 -1 -31 44 -31 63 0 73 -24 68 -160 -2 -57 -7 -108 -11 -112 -4 -3 -45 -3
-92 1 -47 5 -89 4 -95 0 -5 -5 -22 -9 -37 -9 -24 0 -28 4 -29 28 -8 185 -6
172 -38 172 -36 0 -38 -2 -45 -67 -9 -91 -44 -133 -110 -133 -12 0 -27 5 -34
12 -16 16 3 38 33 38 39 0 56 31 53 96 -2 48 -6 59 -21 62 -10 2 -24 -3 -30
-11 -20 -25 -56 -31 -64 -11 -4 12 7 28 40 58 46 41 73 89 61 108 -4 6 -26 7
-55 3 -42 -6 -49 -4 -49 10 0 9 12 27 27 39 l28 24 -18 36 c-9 20 -17 41 -17
46 0 12 47 13 54 1 12 -19 47 -19 65 1 24 25 57 20 53 -7 -2 -11 -12 -29 -23
-41 -23 -25 -24 -58 -3 -143 21 -83 27 -90 61 -65 16 12 40 24 56 28 42 10 33
33 -15 40 -81 12 -92 46 -15 46 59 0 74 12 59 44 -9 19 -19 26 -41 26 -33 0
-44 10 -35 34 4 10 18 16 35 16 28 0 69 30 69 50 0 12 3 12 24 4z m797 -25
c10 -17 2 -150 -10 -162 -5 -5 -51 -11 -103 -14 -146 -7 -138 -2 -138 -81 0
-110 -56 -268 -89 -248 -8 5 -9 23 -5 55 l6 48 -48 0 c-32 0 -58 -6 -75 -18
-25 -18 -27 -18 -43 0 -13 15 -16 45 -16 192 0 212 3 219 85 219 84 0 90 -14
88 -215 -1 -129 1 -162 12 -162 15 0 29 77 31 167 3 216 4 217 35 230 16 7 39
10 51 7 13 -4 29 -3 35 1 20 12 175 -4 184 -19z m677 9 c20 -10 22 -19 22 -83
0 -43 -5 -76 -12 -84 -11 -10 -9 -15 6 -27 11 -8 30 -14 43 -14 16 0 23 -6 23
-20 0 -18 -8 -20 -127 -22 -116 -3 -128 -5 -131 -22 -3 -16 0 -18 25 -12 15 3
67 9 114 12 84 6 87 6 94 -16 8 -25 -13 -110 -26 -110 -5 0 -9 -13 -9 -30 0
-24 7 -32 35 -46 63 -30 24 -57 -47 -33 -34 11 -46 10 -86 -4 -63 -23 -72 -22
-72 8 l0 26 -27 -26 c-33 -30 -34 -30 -66 -5 -22 17 -35 20 -79 15 -29 -3 -61
-8 -70 -11 -20 -6 -58 12 -58 27 0 5 10 13 22 18 21 7 23 15 24 96 2 82 0 90
-24 111 -20 19 -22 27 -13 38 7 8 22 16 34 18 20 3 22 10 27 97 l5 95 49 10
c63 14 294 9 324 -6z m112 -3 c0 -16 -6 -25 -15 -25 -15 0 -21 31 -8 43 13 14
23 6 23 -18z m535 0 c0 -17 -10 -21 -79 -30 -72 -9 -78 -11 -61 -25 14 -11 38
-14 100 -12 86 4 115 -9 101 -44 -5 -13 -15 -15 -46 -11 -46 6 -51 -3 -15 -30
22 -16 25 -26 27 -102 2 -81 1 -84 -22 -93 -14 -5 -41 -8 -60 -8 -65 3 -100 0
-100 -9 0 -5 36 -11 80 -13 59 -2 84 -8 97 -21 27 -27 3 -37 -94 -37 -82 0
-90 -3 -75 -28 6 -9 19 -10 48 -4 38 8 157 -8 172 -22 12 -12 -20 -24 -82 -30
-83 -9 -458 2 -469 13 -17 17 31 30 119 32 86 2 120 12 108 30 -3 5 -43 9 -88
9 -63 0 -87 4 -96 15 -24 28 4 40 97 40 58 0 88 4 90 12 3 9 -20 13 -84 15
l-88 3 -2 90 c-1 50 3 95 9 102 12 15 3 47 -11 39 -16 -10 -41 5 -41 25 0 16
7 19 43 19 40 0 67 13 67 32 0 13 -28 9 -33 -4 -5 -17 -37 8 -37 28 0 19 28
24 147 27 57 2 106 7 110 11 4 4 43 5 88 4 72 -3 80 -5 80 -23z m1136 8 c1
-10 2 -29 3 -43 1 -21 7 -25 45 -32 24 -4 48 -5 52 -2 5 3 27 0 49 -7 l40 -12
0 -173 c0 -181 -5 -209 -41 -243 -24 -22 -82 -28 -108 -12 -22 14 3 39 42 43
50 5 58 31 52 192 -3 77 -6 141 -8 142 -2 2 -35 6 -74 9 l-72 5 -21 -38 c-12
-21 -34 -43 -49 -49 -25 -9 -28 -16 -34 -73 -4 -35 -7 -91 -7 -125 0 -73 -12
-90 -50 -70 -38 21 -87 19 -100 -5 -11 -21 -44 -27 -55 -10 -3 5 -6 97 -7 202
l0 193 36 31 c20 17 36 36 36 41 0 16 38 46 49 38 6 -3 11 -21 11 -40 0 -31 3
-35 39 -45 39 -10 51 -25 51 -62 0 -50 39 4 86 120 18 44 33 54 35 25z m-4111
-25 c0 -46 12 -60 46 -56 25 3 30 8 34 38 4 27 10 36 28 38 19 3 22 -1 22 -33
0 -40 11 -47 67 -49 34 -1 36 1 47 44 8 35 16 45 31 45 15 0 21 -8 23 -31 3
-29 6 -31 60 -40 63 -10 63 -10 43 -89 -33 -133 -51 -216 -51 -236 0 -14 13
-36 29 -52 35 -33 48 -65 31 -81 -9 -8 -19 -2 -43 27 -39 45 -60 47 -98 6 -32
-35 -62 -35 -67 -1 -2 12 1 22 7 22 5 0 24 15 41 33 27 28 31 37 26 72 -8 65
-43 135 -68 135 -21 0 -21 2 -6 71 2 9 -7 15 -24 17 -57 7 -63 -84 -8 -105
l30 -11 0 -89 c0 -107 -10 -127 -65 -125 -20 1 -50 -5 -67 -14 -56 -29 -63
-17 -66 107 -3 120 4 139 44 139 17 0 25 7 30 25 9 34 -13 64 -59 80 -44 15
-39 35 -42 -180 -4 -242 -2 -227 -27 -223 -22 3 -23 8 -30 138 -9 156 -11 164
-38 157 -29 -7 -33 7 -13 47 61 117 93 186 93 195 0 6 9 11 20 11 16 0 20 -7
20 -32z m3673 13 c22 -22 -13 -41 -77 -41 -69 0 -101 -13 -76 -30 8 -5 34 -10
57 -10 70 0 73 -4 73 -80 0 -53 -4 -69 -16 -74 -9 -3 -62 -6 -119 -6 -112 0
-135 -5 -135 -26 0 -11 24 -14 118 -15 64 -1 121 -1 126 0 25 5 56 -11 56 -28
0 -23 -19 -31 -70 -31 -30 0 -44 -6 -64 -31 -14 -17 -26 -35 -26 -40 0 -12 38
-34 83 -49 74 -23 92 -66 23 -57 -39 6 -67 15 -142 49 -21 10 -57 2 -124 -25
-14 -5 -43 -13 -65 -17 -22 -4 -44 -8 -50 -10 -5 -1 -29 -2 -52 -1 -35 1 -43
5 -43 19 0 15 15 22 83 36 106 23 118 30 75 45 -53 20 -63 27 -67 47 -6 33
-22 44 -66 44 -28 0 -45 5 -48 15 -9 21 5 26 83 27 58 1 73 5 81 20 12 23 3
26 -71 30 l-55 3 -3 53 c-4 78 14 102 78 102 49 0 71 13 52 32 -5 5 -40 11
-76 12 -68 1 -96 17 -75 42 12 15 517 10 532 -5z m1172 3 c19 -20 21 -162 2
-188 -11 -15 -30 -18 -118 -18 -59 -1 -112 3 -119 7 -7 4 -16 2 -20 -5 -5 -8
-10 -9 -14 -2 -4 6 -22 8 -41 5 -25 -4 -41 -1 -54 11 -17 15 -18 28 -14 99 4
57 10 86 21 94 24 20 337 17 357 -3z m1055 6 c22 -12 110 -117 110 -131 0 -24
-33 -20 -58 7 -53 56 -82 97 -82 115 0 22 4 23 30 9z m-358 -18 c17 -17 -8
-42 -43 -42 -38 0 -59 -24 -59 -70 0 -62 6 -69 71 -76 63 -7 73 -13 63 -38 -4
-11 -19 -16 -53 -16 -25 0 -52 -4 -58 -8 -9 -5 -15 -50 -19 -130 -5 -92 -11
-122 -21 -127 -28 -10 -33 7 -33 124 0 83 -4 122 -12 128 -22 17 -99 24 -133
13 -34 -11 -44 -30 -45 -85 -2 -65 -91 -175 -141 -175 -28 0 -23 21 17 65 40
44 74 114 74 151 0 18 -9 27 -36 39 -20 8 -40 12 -45 9 -15 -9 -49 6 -49 21 0
17 65 37 96 29 30 -8 46 23 42 83 -3 50 -12 59 -71 68 -53 9 -48 38 8 45 80
10 435 4 447 -8z m301 -159 c4 -38 7 -116 7 -175 l0 -108 79 0 c89 0 97 5 107
68 4 23 11 45 17 49 19 11 34 -26 30 -74 -7 -88 -31 -103 -168 -103 -57 0 -78
4 -96 19 -23 19 -24 25 -27 185 -3 165 3 206 32 206 9 0 15 -21 19 -67z m278
-5 c17 -14 74 -136 84 -180 6 -24 4 -28 -13 -28 -23 0 -62 44 -62 69 0 9 -11
40 -25 69 -14 30 -25 60 -25 68 0 17 21 18 41 2z m-381 -32 c0 -18 -7 -58 -16
-87 -8 -30 -21 -71 -27 -93 -13 -44 -34 -57 -53 -32 -11 15 -9 27 11 71 12 29
26 68 30 86 10 55 26 89 41 89 9 0 14 -12 14 -34z m-4245 -46 c8 -35 20 -37
91 -15 72 22 111 3 61 -29 -12 -9 -46 -21 -75 -29 -64 -16 -75 -26 -78 -73 -5
-62 9 -75 73 -72 58 3 64 7 83 62 9 24 13 26 26 15 23 -19 13 -87 -17 -110
-32 -24 -139 -29 -182 -9 l-32 15 -5 123 c-3 68 -1 130 3 138 15 26 45 16 52
-16z m2657 -38 c19 -28 23 -43 16 -55 -5 -9 -13 -17 -18 -17 -14 0 -92 119
-85 130 10 17 60 -16 87 -58z m785 45 c4 -5 2 -16 -3 -25 -9 -14 -30 -18 -118
-20 -85 -2 -108 -6 -113 -18 -9 -25 13 -38 74 -40 32 -1 66 -2 76 -3 26 -2 20
-30 -9 -41 -14 -6 -52 -10 -85 -10 -51 0 -59 -3 -59 -18 0 -37 30 -50 127 -54
51 -2 95 -7 99 -11 4 -3 4 -14 0 -23 -6 -15 -22 -16 -156 -12 l-150 5 -55 36
c-30 21 -59 37 -63 37 -5 0 -23 -16 -41 -35 -34 -38 -58 -44 -68 -19 -3 10 8
29 31 53 20 20 36 42 36 49 0 12 5 24 29 70 13 25 11 27 -53 36 -50 7 -76 39
-38 49 29 8 531 2 539 -6z m-3138 -184 c-1 -18 -3 -21 -6 -10 -2 10 -12 16
-20 15 -9 -2 -18 3 -20 10 -3 7 5 12 21 12 22 0 26 -4 25 -27z m-1969 -38 c0
-9 -11 -11 -37 -8 -64 8 -74 22 -15 21 35 0 52 -5 52 -13z m1976 -54 c3 -26 0
-32 -21 -37 -14 -3 -33 -3 -42 1 -16 6 -15 8 6 24 16 12 20 21 12 25 -8 5 -8
13 0 28 10 18 12 19 27 5 8 -9 17 -30 18 -46z m-2173 22 c-7 -2 -21 -2 -30 0
-10 3 -4 5 12 5 17 0 24 -2 18 -5z m1517 -38 c6 -8 9 -19 5 -25 -3 -5 2 -10
13 -10 15 0 19 5 15 20 -10 38 12 20 25 -20 19 -61 19 -61 -65 -58 -85 3 -105
19 -49 39 36 13 44 23 26 34 -10 6 -2 35 10 35 4 0 13 -7 20 -15z m-1578 -35
c20 -7 17 -9 -19 -9 -23 -1 -48 -7 -55 -13 -7 -7 -30 -14 -51 -16 -37 -2 -37
-2 -23 20 12 19 26 23 70 25 30 2 65 -1 78 -7z m118 -10 c0 -5 15 -10 33 -11
17 0 26 -3 20 -6 -7 -2 -13 -11 -13 -19 0 -8 -12 -19 -26 -24 -34 -13 -34 -13
-34 15 0 17 -6 25 -17 25 -15 0 -14 2 3 15 23 17 34 19 34 5z m1043 -39 c126
-2 177 -6 177 -13 0 -5 -10 -9 -22 -10 -64 -4 -285 -5 -300 -1 -29 7 -20 22
17 29 19 3 38 11 42 18 5 7 9 5 11 -6 3 -13 16 -17 75 -17z m687 25 c0 -2 -9
-6 -20 -9 -11 -3 -20 -1 -20 4 0 5 9 9 20 9 11 0 20 -2 20 -4z m-97 -13 c-7
-2 -19 -2 -25 0 -7 3 -2 5 12 5 14 0 19 -2 13 -5z m-1493 -13 c0 -5 -2 -10 -4
-10 -3 0 -8 5 -11 10 -3 6 -1 10 4 10 6 0 11 -4 11 -10z m1139 1 c9 -6 10 -10
2 -16 -16 -9 -44 2 -36 15 8 12 16 12 34 1z m-924 -20 c10 -18 -15 -22 -37 -7
l-22 16 26 0 c15 0 29 -4 33 -9z m1555 -41 c10 -7 -5 -9 -50 -9 -48 1 -58 3
-40 9 35 11 72 11 90 0z m-1330 -10 c0 -5 -4 -10 -9 -10 -6 0 -13 5 -16 10 -3
6 1 10 9 10 9 0 16 -4 16 -10z m103 -17 c-13 -2 -33 -2 -45 0 -13 2 -3 4 22 4
25 0 35 -2 23 -4z m-66 -19 c-3 -3 -12 -4 -19 -1 -8 3 -5 6 6 6 11 1 17 -2 13
-5z"/>
<path d="M2647 657 c-3 -8 -1 -20 3 -27 11 -18 41 5 33 26 -7 18 -29 18 -36 1z"/>
<path d="M2574 455 c-12 -30 3 -42 48 -40 98 4 99 4 96 23 -5 26 -18 32 -81
32 -42 0 -59 -4 -63 -15z"/>
<path d="M2583 353 c-3 -7 -3 -20 1 -28 8 -22 134 -21 143 1 3 8 1 20 -5 26
-16 16 -133 16 -139 1z"/>
<path d="M3182 708 c-16 -16 -15 -43 1 -56 17 -14 165 -18 178 -5 6 6 9 23 7
39 l-3 29 -85 3 c-58 2 -89 -1 -98 -10z"/>
<path d="M2964 679 c-3 -6 -9 -64 -11 -129 -5 -114 -4 -119 17 -130 41 -22 50
0 50 129 0 116 -7 141 -36 141 -7 0 -16 -5 -20 -11z"/>
<path d="M3915 720 c72 -12 125 -12 125 0 0 6 -35 9 -87 9 -81 -2 -84 -2 -38
-9z"/>
<path d="M3810 650 c-32 -5 -33 -6 -10 -11 33 -8 208 -4 217 4 3 4 -2 7 -13 7
-10 0 -50 2 -89 3 -38 1 -86 0 -105 -3z"/>
<path d="M3978 583 c7 -3 16 -2 19 1 4 3 -2 6 -13 5 -11 0 -14 -3 -6 -6z"/>
<path d="M3760 509 c0 -10 28 -19 56 -19 15 0 24 6 24 15 0 12 -10 15 -40 13
-22 -2 -40 -6 -40 -9z"/>
<path d="M3924 442 c-14 -9 -10 -58 7 -106 12 -33 17 -37 44 -34 35 3 46 36
21 61 -9 9 -16 22 -16 30 0 19 -43 57 -56 49z"/>
<path d="M3772 428 c7 -20 68 -23 68 -4 0 12 -10 16 -36 16 -24 0 -34 -4 -32
-12z"/>
<path d="M4020 427 c0 -7 6 -21 13 -31 19 -26 57 -13 57 20 0 21 -5 24 -35 24
-22 0 -35 -5 -35 -13z"/>
<path d="M3760 340 c0 -24 35 -27 63 -6 26 20 21 26 -23 26 -33 0 -40 -3 -40
-20z"/>
<path d="M4406 721 c-12 -19 20 -32 48 -20 14 7 26 15 26 19 0 10 -68 11 -74
1z"/>
<path d="M4360 638 c0 -9 20 -13 63 -14 34 -1 52 0 39 3 -12 2 -20 9 -17 14 4
5 -14 9 -39 9 -30 0 -46 -4 -46 -12z"/>
<path d="M4412 573 c-24 -3 -31 -8 -24 -16 13 -16 115 -10 109 6 -4 13 -34 17
-85 10z"/>
<path d="M4593 574 c-7 -3 -13 -10 -13 -15 0 -12 117 -12 125 1 4 6 -7 10 -27
10 -18 0 -42 2 -53 5 -11 2 -26 2 -32 -1z"/>
<path d="M4598 493 c-39 -10 -15 -23 42 -23 33 0 60 4 60 10 0 6 -13 10 -29
10 -16 0 -35 2 -43 4 -7 2 -21 2 -30 -1z"/>
<path d="M4390 477 c0 -21 12 -28 26 -16 10 8 22 8 43 1 31 -11 41 -7 41 15 0
9 -16 13 -55 13 -39 0 -55 -4 -55 -13z"/>
<path d="M5602 618 c-31 -31 0 -78 53 -78 41 0 49 11 41 56 -6 32 -10 34 -44
34 -21 0 -43 -5 -50 -12z"/>
<path d="M5614 465 c-20 -14 -21 -84 -2 -96 7 -5 29 -8 48 -7 30 3 35 7 38 32
6 51 -5 73 -38 78 -17 3 -38 0 -46 -7z"/>
<path d="M2054 628 c-3 -5 -2 -28 1 -53 7 -45 26 -72 43 -61 16 10 25 96 12
111 -12 14 -48 16 -56 3z"/>
<path d="M1834 446 c-3 -13 -4 -37 -2 -52 2 -24 8 -30 33 -32 41 -5 56 18 43
68 -9 35 -14 40 -39 40 -22 0 -30 -6 -35 -24z"/>
<path d="M5147 713 c-15 -15 -5 -23 29 -23 31 0 35 2 24 15 -13 16 -42 20 -53
8z"/>
<path d="M5153 620 c-51 -21 -11 -60 41 -41 29 12 32 21 14 39 -14 14 -24 14
-55 2z"/>
<path d="M5293 624 c-20 -9 -15 -42 7 -49 33 -10 62 4 58 28 -3 22 -37 33 -65
21z"/>
<path d="M4993 604 c-6 -17 12 -34 38 -34 23 0 53 25 45 38 -11 18 -76 15 -83
-4z"/>
<path d="M5097 414 c-3 -4 -2 -14 3 -24 12 -22 101 -35 130 -20 27 14 25 36
-2 44 -30 8 -123 8 -131 0z"/>
<path d="M6307 724 c-3 -4 0 -13 8 -20 10 -10 45 -14 134 -14 114 0 121 1 121
20 0 19 -7 20 -128 20 -71 0 -131 -3 -135 -6z"/>
<path d="M6317 633 c-10 -3 -16 -10 -14 -16 3 -8 43 -12 131 -12 122 0 155 7
125 26 -14 9 -209 11 -242 2z"/>
<path d="M7014 700 c-36 -14 -43 -111 -10 -132 15 -11 118 -10 135 1 18 12 25
105 8 119 -17 14 -107 23 -133 12z"/>
<path d="M6302 463 c-10 -4 -10 -8 -1 -19 6 -7 8 -25 5 -39 -6 -25 21 -65 44
-65 6 0 10 -6 10 -14 0 -17 40 -29 46 -13 2 7 3 44 1 82 l-2 70 -45 2 c-25 1
-51 -1 -58 -4z"/>
<path d="M2597 6046 c-44 -16 -81 -46 -70 -57 5 -4 24 -9 43 -11 46 -4 62 -35
57 -107 -4 -49 -8 -59 -42 -88 -50 -43 -86 -44 -116 -2 -18 25 -20 39 -15 80
4 27 4 49 1 49 -13 0 -65 -59 -65 -74 0 -8 -6 -19 -14 -23 -7 -4 -23 -27 -34
-50 -12 -22 -27 -43 -34 -46 -11 -4 -11 -7 0 -15 10 -7 10 -23 1 -83 -14 -90
-6 -285 15 -350 22 -70 80 -154 119 -173 40 -19 105 -21 161 -5 41 11 83 48
102 90 6 13 27 58 47 99 19 41 40 95 47 120 7 25 18 63 25 85 34 105 47 264
27 325 -7 19 -19 60 -27 91 -18 64 -67 122 -121 145 -41 17 -58 17 -107 0z"/>
<path d="M2136 5805 c3 -8 14 -17 25 -20 10 -4 19 -10 19 -14 0 -13 76 -43 96
-38 14 3 11 6 -13 12 -17 4 -34 13 -37 21 -3 8 -11 14 -18 14 -7 0 -19 9 -26
20 -14 23 -54 28 -46 5z"/>
<path d="M5387 5214 c-10 -11 -9 -52 3 -59 6 -3 10 -28 10 -54 0 -41 -4 -50
-30 -69 -16 -12 -35 -22 -43 -22 -20 0 -37 21 -37 46 0 13 -4 25 -8 28 -9 5
-13 -3 -46 -77 -18 -42 -52 -202 -61 -290 -8 -80 -11 -84 -58 -91 -22 -4 -47
-12 -54 -18 -9 -7 -38 -9 -81 -5 -38 4 -93 2 -127 -5 -71 -13 -280 -18 -312
-7 -12 5 -32 19 -45 31 -21 21 -85 68 -92 68 -2 0 -21 16 -42 35 -21 19 -53
41 -71 47 -18 7 -33 16 -33 20 0 4 -6 8 -13 8 -7 0 -30 9 -51 20 -34 17 -61
19 -230 20 -105 0 -216 -3 -246 -9 -78 -13 -180 -51 -180 -67 0 -17 5 -17 60
2 142 50 526 55 595 8 11 -8 27 -14 36 -14 9 0 22 -7 29 -15 7 -8 35 -26 62
-40 53 -27 158 -105 158 -118 0 -16 -31 -19 -102 -9 -40 5 -79 6 -87 2 -31
-17 21 -22 239 -26 126 -1 244 -6 262 -9 21 -4 67 1 120 14 47 12 97 21 111
21 14 0 29 5 32 10 11 18 68 10 129 -19 68 -32 141 -97 204 -183 24 -32 47
-58 52 -58 15 0 12 36 -4 49 -30 25 -28 61 4 97 80 91 140 280 140 439 0 65 3
76 22 89 l22 15 -26 20 c-14 11 -28 33 -31 49 -11 56 -72 108 -147 127 -14 3
-29 3 -33 -1z"/>
<path d="M5708 5134 c-5 -4 -8 -16 -8 -28 0 -14 3 -17 11 -9 6 6 9 19 7 28 -1
9 -6 13 -10 9z"/>
<path d="M5666 5064 c-17 -12 -17 -14 -4 -14 9 0 20 5 23 11 11 17 2 18 -19 3z"/>
<path d="M3835 4589 c-22 -5 -64 -11 -93 -14 -29 -3 -71 -13 -93 -21 -23 -7
-54 -14 -70 -14 -15 0 -31 -5 -35 -12 -7 -12 51 -8 166 12 156 26 230 34 390
39 101 3 164 9 150 13 -34 10 -366 8 -415 -3z"/>
<path d="M3423 4494 c-25 -11 -12 -25 20 -22 17 2 32 8 32 13 0 11 -33 17 -52
9z"/>
<path d="M4670 4480 c0 -5 5 -10 10 -10 6 0 10 5 10 10 0 6 -4 10 -10 10 -5 0
-10 -4 -10 -10z"/>
<path d="M3360 4460 c0 -5 4 -10 9 -10 6 0 13 5 16 10 3 6 -1 10 -9 10 -9 0
-16 -4 -16 -10z"/>
<path d="M4595 4429 c-10 -15 1 -23 20 -15 9 3 13 10 10 16 -8 13 -22 13 -30
-1z"/>
<path d="M3300 4420 c0 -5 5 -10 10 -10 6 0 10 5 10 10 0 6 -4 10 -10 10 -5 0
-10 -4 -10 -10z"/>
<path d="M4563 4402 c-8 -5 -9 -13 -3 -22 7 -12 10 -12 16 3 8 21 3 29 -13 19z"/>
<path d="M3176 4365 c-20 -15 -20 -15 0 -15 11 0 29 7 40 15 19 14 19 14 -1
14 -11 0 -29 -6 -39 -14z"/>
<path d="M4493 4363 c-18 -7 -16 -30 4 -37 21 -8 38 8 30 28 -7 16 -13 18 -34
9z"/>
<path d="M5460 4310 c0 -4 11 -22 25 -38 14 -17 25 -34 25 -38 1 -5 16 -27 35
-49 31 -36 35 -37 35 -17 0 12 -4 22 -9 22 -5 0 -26 27 -47 59 -36 56 -64 82
-64 61z"/>
<path d="M4399 4281 c-41 -42 -162 -153 -197 -183 -18 -14 -32 -31 -32 -37 0
-23 30 -9 67 30 21 23 46 49 56 58 10 9 30 26 43 39 14 12 29 22 33 22 11 0
101 84 101 93 0 17 -48 2 -71 -22z"/>
<path d="M5580 4116 c0 -8 7 -17 16 -20 21 -8 26 -3 18 18 -8 20 -34 21 -34 2z"/>
<path d="M5621 4064 c0 -11 3 -14 6 -6 3 7 2 16 -1 19 -3 4 -6 -2 -5 -13z"/>
<path d="M4085 3993 c-22 -26 -50 -58 -62 -70 -13 -13 -23 -27 -23 -31 0 -4
-9 -13 -20 -20 -11 -7 -20 -19 -20 -27 0 -8 -4 -15 -8 -15 -8 0 -55 -45 -133
-129 -17 -19 -41 -55 -53 -80 -12 -25 -38 -62 -57 -83 -20 -20 -43 -52 -53
-72 -9 -19 -24 -41 -34 -48 -18 -13 -62 -73 -62 -83 0 -3 -9 -15 -20 -27 -11
-12 -20 -31 -19 -42 0 -12 3 -15 6 -8 2 6 11 12 18 12 7 0 15 8 19 18 7 22 25
49 54 81 12 14 22 29 22 34 0 4 17 26 38 50 31 35 78 93 114 142 4 6 20 26 36
45 67 84 132 170 132 177 1 5 21 24 45 43 25 19 59 56 76 83 17 27 42 52 55
57 16 6 22 15 18 25 -10 25 -27 17 -69 -32z"/>
<path d="M5646 4008 c4 -13 14 -34 23 -48 16 -24 16 -24 19 -3 3 23 -24 73
-40 73 -5 0 -6 -10 -2 -22z"/>
<path d="M5700 3901 c0 -17 4 -32 9 -35 5 -3 12 -21 15 -40 4 -19 14 -40 22
-47 14 -11 15 -8 9 27 -7 37 -42 124 -51 124 -2 0 -4 -13 -4 -29z"/>
<path d="M5774 3698 c3 -12 7 -49 10 -81 7 -64 27 -147 36 -147 11 0 -2 146
-16 177 -8 17 -14 38 -14 46 0 9 -5 19 -10 22 -7 4 -9 -2 -6 -17z"/>
<path d="M4506 3659 c-29 -23 -34 -50 -11 -69 9 -7 17 -11 18 -9 2 3 27 54 45
92 7 15 -26 6 -52 -14z"/>
<path d="M4414 3575 c-9 -14 -20 -25 -26 -25 -10 0 -98 -88 -98 -98 0 -4 -19
-27 -41 -52 -23 -25 -54 -68 -70 -96 -16 -27 -40 -60 -54 -72 -14 -12 -25 -29
-25 -38 0 -9 -8 -28 -18 -42 -10 -15 -25 -43 -32 -62 -7 -19 -17 -40 -21 -45
-15 -20 -57 -170 -60 -210 -4 -53 10 -116 29 -137 23 -27 78 -23 106 7 13 14
37 30 54 36 22 7 33 19 37 39 3 16 13 34 21 41 8 6 14 16 14 21 0 6 10 31 23
57 13 25 27 66 31 90 4 25 21 74 37 109 17 35 37 98 45 140 19 110 25 134 41
158 7 11 10 23 7 27 -3 3 -3 29 1 57 6 41 12 54 31 62 15 7 24 20 24 35 0 32
-35 31 -56 -2z"/>
<path d="M5515 3468 c-2 -7 -8 -51 -13 -98 -7 -60 -19 -105 -41 -152 -17 -36
-31 -72 -31 -78 0 -7 -9 -29 -20 -49 -10 -20 -33 -79 -51 -131 -25 -76 -32
-116 -35 -199 -4 -93 -2 -107 18 -140 28 -45 35 -51 75 -51 83 0 99 28 137
245 37 209 38 229 26 365 -6 69 -14 154 -17 189 -3 36 -9 75 -14 88 -9 25 -27
30 -34 11z"/>
<path d="M5823 3434 c-3 -8 -1 -20 6 -27 8 -8 11 -4 11 16 0 30 -7 35 -17 11z"/>
<path d="M3490 3199 c0 -6 -11 -25 -25 -43 -14 -18 -25 -38 -25 -45 0 -6 -7
-23 -16 -36 -9 -13 -14 -32 -12 -42 2 -13 8 -8 21 19 10 20 22 40 28 44 11 6
49 88 49 105 0 5 -4 9 -10 9 -5 0 -10 -5 -10 -11z"/>
<path d="M1745 3129 c-103 -54 -130 -106 -127 -241 2 -94 27 -206 53 -232 5
-6 9 -17 9 -25 0 -8 7 -23 17 -33 9 -10 21 -27 27 -37 22 -38 91 -136 98 -139
3 -2 25 -28 48 -58 24 -30 47 -54 52 -54 5 0 24 -11 41 -24 18 -13 47 -27 64
-31 18 -3 35 -11 38 -16 4 -5 17 -9 30 -9 13 0 38 -8 57 -17 18 -9 45 -22 60
-30 14 -7 31 -13 38 -13 6 0 18 -7 26 -15 9 -8 27 -15 42 -15 15 -1 38 -7 52
-15 14 -8 36 -15 50 -15 14 0 59 -12 100 -25 41 -14 84 -25 97 -25 12 0 45 -9
72 -20 69 -27 452 -58 801 -66 119 -2 209 -10 280 -23 58 -11 128 -20 157 -20
66 -1 274 28 288 39 6 5 30 12 53 16 23 4 45 11 48 15 7 13 127 11 198 -2 70
-13 78 -16 167 -58 37 -17 78 -31 91 -31 14 0 37 -9 52 -21 37 -29 159 -66
240 -72 101 -7 252 16 316 49 14 7 36 15 50 18 35 7 118 88 166 161 35 54 51
86 108 218 9 21 16 47 16 58 0 12 6 35 14 52 19 42 46 136 61 217 7 36 20 96
29 135 18 79 21 159 6 150 -5 -3 -10 -21 -10 -38 -1 -40 -28 -150 -76 -312 -9
-27 -18 -63 -21 -80 -6 -36 -52 -156 -64 -169 -5 -6 -9 -17 -9 -25 0 -9 -11
-38 -25 -66 -13 -27 -25 -58 -25 -67 0 -10 -7 -18 -15 -18 -8 0 -21 -13 -30
-29 -20 -39 -96 -101 -124 -101 -12 0 -35 -9 -51 -20 -17 -11 -43 -29 -59 -40
-31 -20 -193 -44 -199 -28 -2 4 -30 8 -63 8 -38 0 -71 7 -96 19 -21 11 -60 23
-88 27 -54 8 -263 106 -271 128 -3 8 -15 14 -27 13 -12 0 -75 3 -139 7 -83 6
-118 4 -118 -3 0 -6 -11 -11 -25 -11 -14 0 -25 -5 -25 -11 0 -8 -17 -10 -55
-6 -49 5 -75 -4 -42 -16 6 -2 -59 -7 -145 -12 -158 -7 -189 -4 -314 31 -28 8
-65 14 -82 14 -18 0 -42 10 -59 24 -16 14 -41 28 -55 31 -26 7 -78 62 -154
165 -48 65 -51 70 -75 177 -17 76 -17 88 -3 160 9 43 24 96 34 118 10 22 21
49 23 60 3 11 15 45 27 75 12 30 24 65 27 78 6 24 -11 30 -24 10 -18 -29 -77
-181 -114 -293 -42 -128 -44 -176 -13 -254 8 -18 14 -46 14 -61 0 -15 11 -42
25 -61 13 -19 33 -50 44 -70 11 -19 27 -41 35 -48 9 -8 16 -20 16 -27 0 -8 24
-30 54 -50 76 -50 67 -64 -38 -64 -82 1 -227 10 -479 30 -116 9 -268 37 -296
54 -4 3 -39 10 -77 16 -102 16 -146 29 -138 42 5 7 -7 9 -39 4 -39 -6 -48 -4
-58 12 -8 12 -20 17 -35 14 -17 -3 -24 0 -24 12 0 11 -9 16 -28 16 -16 0 -47
9 -70 20 -22 11 -48 20 -56 20 -8 0 -21 6 -28 13 -7 7 -41 28 -76 47 -58 31
-152 119 -152 142 0 6 -7 7 -15 4 -10 -3 -18 1 -22 12 -4 9 -14 23 -24 30 -10
6 -21 27 -25 44 -3 18 -12 37 -19 43 -13 10 -19 38 -29 140 -3 28 0 97 8 155
l13 105 52 53 c41 43 49 57 40 68 -15 19 -27 18 -74 -7z"/>
<path d="M4300 1476 c-7 -9 -21 -16 -31 -16 -11 0 -27 -4 -37 -9 -9 -5 -44
-17 -77 -26 -33 -10 -71 -22 -84 -27 -13 -5 -32 -6 -43 -2 -10 3 -29 -1 -41
-9 -12 -7 -42 -17 -67 -20 -25 -4 -76 -12 -115 -17 -147 -23 -365 -37 -492
-32 -73 2 -143 2 -156 -2 -33 -8 -42 -52 -13 -61 20 -7 20 -7 -4 -15 -20 -6
-12 -9 35 -11 33 -2 74 -2 90 -2 17 1 91 4 165 7 74 3 181 12 238 20 57 8 109
13 115 10 7 -2 40 5 74 15 58 18 73 18 73 1 0 -10 -47 -28 -95 -36 -22 -4 -53
-17 -70 -30 -22 -16 -65 -28 -160 -44 -71 -12 -152 -26 -180 -31 -27 -6 -107
-11 -177 -13 -69 -2 -131 -7 -137 -11 -16 -9 -14 -40 3 -54 29 -24 404 2 504
35 23 8 60 14 81 14 21 0 52 7 67 15 16 8 36 15 45 15 8 0 24 7 35 15 10 8 28
15 39 15 11 0 29 6 40 14 11 7 31 17 45 21 14 4 55 25 92 46 69 40 96 47 115
28 6 -6 16 -8 23 -4 8 5 6 11 -7 20 -17 12 -16 14 10 26 15 7 26 19 25 28 -2
9 6 17 17 19 11 2 30 15 42 29 12 14 37 33 55 43 18 9 33 24 33 31 0 20 -59
24 -75 5z m-240 -145 c0 -12 -56 -34 -72 -28 -7 2 2 11 22 20 42 18 50 20 50
8z"/>
<path d="M4360 1340 c0 -5 4 -10 9 -10 6 0 13 5 16 10 3 6 -1 10 -9 10 -9 0
-16 -4 -16 -10z"/>
<path d="M555 942 c-5 -4 -16 -15 -24 -24 -12 -16 -11 -18 9 -18 13 0 20 3 17
6 -3 4 -2 15 4 25 11 21 9 23 -6 11z"/>
<path d="M1945 910 c-25 -6 -21 -8 25 -9 39 0 51 2 40 9 -17 11 -22 11 -65 0z"/>
<path d="M1858 903 c12 -2 30 -2 40 0 9 3 -1 5 -23 4 -22 0 -30 -2 -17 -4z"/>
<path d="M276 851 c-9 -15 22 -34 41 -26 17 8 17 8 1 12 -10 3 -18 9 -18 14 0
12 -17 12 -24 0z"/>
<path d="M598 833 c7 -3 16 -2 19 1 4 3 -2 6 -13 5 -11 0 -14 -3 -6 -6z"/>
<path d="M1600 830 c0 -13 11 -13 30 0 12 8 11 10 -7 10 -13 0 -23 -4 -23 -10z"/>
<path d="M660 800 c0 -5 9 -10 20 -10 11 0 20 5 20 10 0 6 -9 10 -20 10 -11 0
-20 -4 -20 -10z"/>
<path d="M576 656 c10 -8 21 -12 24 -10 5 6 -21 24 -34 24 -6 0 -1 -6 10 -14z"/>
<path d="M420 645 c0 -8 5 -15 10 -15 6 0 10 7 10 15 0 8 -4 15 -10 15 -5 0
-10 -7 -10 -15z"/>
<path d="M1440 626 c0 -22 3 -27 11 -19 8 8 8 16 0 30 -9 16 -10 14 -11 -11z"/>
<path d="M1070 614 c0 -17 22 -14 28 4 2 7 -3 12 -12 12 -9 0 -16 -7 -16 -16z"/>
<path d="M1033 593 c-18 -6 -16 -23 1 -23 17 0 30 16 19 23 -5 2 -14 2 -20 0z"/>
<path d="M1148 573 c7 -3 16 -2 19 1 4 3 -2 6 -13 5 -11 0 -14 -3 -6 -6z"/>
<path d="M1225 540 c3 -5 8 -10 11 -10 2 0 4 5 4 10 0 6 -5 10 -11 10 -5 0 -7
-4 -4 -10z"/>
<path d="M1080 530 c0 -5 5 -10 10 -10 6 0 10 5 10 10 0 6 -4 10 -10 10 -5 0
-10 -4 -10 -10z"/>
<path d="M640 500 c0 -5 7 -10 15 -10 8 0 15 5 15 10 0 6 -7 10 -15 10 -8 0
-15 -4 -15 -10z"/>
<path d="M695 436 c-18 -13 -18 -14 1 -24 12 -6 26 -7 35 -2 12 8 12 11 -1 25
-14 13 -19 13 -35 1z"/>
<path d="M750 423 c1 -20 28 -55 34 -45 4 6 13 9 21 5 21 -7 19 11 -3 30 -19
17 -52 23 -52 10z"/>
<path d="M1440 420 c0 -5 5 -10 11 -10 5 0 7 5 4 10 -3 6 -8 10 -11 10 -2 0
-4 -4 -4 -10z"/>
<path d="M706 361 c-9 -13 2 -51 14 -51 4 0 11 8 14 17 8 20 -18 51 -28 34z"/>
<path d="M856 355 c-3 -8 -17 -17 -31 -21 -24 -6 -36 -34 -15 -34 6 0 10 4 10
9 0 4 21 14 48 22 26 7 39 15 30 17 -10 2 -18 8 -18 13 0 14 -17 10 -24 -6z"/>
<path d="M764 347 c-6 -17 2 -37 16 -37 15 0 19 29 5 40 -12 10 -16 9 -21 -3z"/>
<path d="M944 165 c-10 -8 -14 -15 -7 -15 6 0 13 -7 15 -15 2 -10 7 -7 15 10
14 30 3 40 -23 20z"/>
<path d="M3648 52 c-22 -4 -24 -32 -3 -32 9 0 18 7 22 15 7 19 3 22 -19 17z"/>
<path d="M1215 20 c-18 -20 -17 -20 36 -20 l54 1 -24 19 c-29 25 -43 25 -66 0z"/>
</g>
</svg>
